<svg xmlns="http://www.w3.org/2000/svg" xmlns:xlink="http://www.w3.org/1999/xlink" width="79px" height="60px" viewBox="0 0 61.71906464 46.82650250000006">
    <g id="53484037-a665-4891-94e9-e3279058d30f">
<g style="">
		<g id="53484037-a665-4891-94e9-e3279058d30f-child-0">
<path style="stroke: rgb(193,193,193); stroke-width: 0; stroke-dasharray: none; stroke-linecap: butt; stroke-dashoffset: 0; stroke-linejoin: miter; stroke-miterlimit: 4; fill: rgb(255,255,255); fill-rule: nonzero; opacity: 1;" transform="matrix(0.474616 0 0 0.474625 30.859532 23.413251) matrix(1 0 0 1 0 0)  translate(-65.02, -49.67)" d="M 0.00 78.00 L 0.00 56.59 L 15.50 40.50 L 62.28 40.24 L 111.49 40.24 L 111.49 19.02 C 111.49 19.02 84.86 19.02 54.75 19.02 L 0.00 19.00 L 0.00 9.34 L 15.16 0.34 C 23.50 0.70 52.76 1.00 80.18 1.00 L 130.04 1.00 L 129.77 21.75 L 129.50 42.50 L 114.00 58.92 L 67.55 59.21 C 35.32 59.41 18.22 59.21 18.22 59.21 L 18.22 81.00 L 74.11 81.00 L 130.00 81.00 L 130.00 90.00 L 118.81 99.00 L 65.00 99.00 L 0.00 99.00 z" stroke-linecap="round"></path>
</g>
</g>
</g>

  </svg>